<?xml version="1.0" encoding="utf-8"?>

<svg version="1.1" id="Layer_1" xmlns="http://www.w3.org/2000/svg" xmlns:xlink="http://www.w3.org/1999/xlink" x="0px" y="0px"
	 width="322.762px" height="171.954px" viewBox="0 0 322.762 171.954" enable-background="new 0 0 322.762 171.954"
	 xml:space="preserve">
<path fill-rule="evenodd" clip-rule="evenodd" fill="#D71F27" d="M0,111.162c1.292-5.881,2.589-11.768,3.877-17.654
	c8.571,1.208,17.447,0.409,26.552-1.762c7.614-21.553,18.045-41.249,38.608-51.222c15.622-7.568,26.001-3.156,22.737,12.343
	c-8.846,29.074-30.437,37.777-50.112,48.1c-1.661,20.193,5.782,23.181,28.345,0.543c6.172-6.193,12.069-6.489,11.438,2.623
	c9.441-7.201,16.435-15.975,20.985-26.319c5.034-1.466,10.073-2.932,15.11-4.395c-2.827,5.738-6,11.313-8.482,17.207
	c-4.406,10.456,4.456,13.216,11.125,0.137c3.4-6.66,6.333-14.739,8.48-21.906c5.643-2.045,9.236-3.676,14.875-5.72
	c-3.372,9.511-6.698,19.028-10.115,28.517c-3.22,8.95-0.271,16.363,7.322,6.168c5.074-6.806,10.834-14.455,12.407-22.234
	c-3.692-10.02-1.171-20.685,5.324-22.372c6.976-1.015,9.819,4.651,6.252,13.875c4.179,0.404,8.826-1.114,8.935-6.306
	c0.212-11.322,1.349-19.523,9.265-20.038c7.605-0.49,8.277,8.575,1.27,20.4c9.207-0.134,11.406,2.75,8.308,10.084
	c-2.037,5.301-4.072,10.601-6.108,15.898c-2.569,7.512,3.185,7.521,8.759,1.451c1.325-22.193,18.167-35.534,44.631-43.386
	c-1.639,4.415-3.281,8.821-4.929,13.233c-9.716,3.496-17.602,8.787-23.848,15.659c-7.015,7.721-3.417,20.615,10.846,7.003
	c3.441-3.283,4.944-7.831,5.647-12.664c3.885-1.324,7.762-2.643,11.639-3.965c-0.674,4.128-1.344,8.25-2.013,12.372
	c-1.553,7.7,6.825,7.154,7.088,0.137c0.514-22.36,7.101-35.703,16.587-50.882c13.266-21.244,28.94-18.173,28.189-3.628
	c-1.938,18.777-8.021,36.875-25.253,53.105c-4.267,3.149-3.844,8.796,4.156,5.043c6.731-3.164,14.037-9.762,20.275-7.554
	c4.604,2.353,2.287,7.962,0.538,12.557c-5.113,13.087-10.23,26.176-15.348,39.263c-6.924,1.191-13.848,2.38-20.768,3.575
	c5.75-10.645,11.507-21.283,17.265-31.928c2.641-5.667-0.16-6.192-3.602-4.604c-8.209,4.035-14.538,3.469-18.14-3.814
	c-9.65,8.543-18.747,14.401-24.057,1.449c-10.579,9.048-19.545,11.437-26.551,5.808c-7.207,5.906-26.862,16.741-22.008-2.336
	c1.402-6.396,2.799-12.799,4.197-19.198c1.39-8.248,0.332-9.015-1.791-6.344c-5.246,6.591-11.226,11.219-17.987,13.833
	c-6.618,14.728-16.458,33.898-29.142,33.898c-7.058-0.128-10.086-5.901-11.293-13.752c-13.51,13.146-25.717,22.358-28.789,4.055
	c-3.622,3.934-7.689,6.953-11.944,9.559c-5.106,17.292-10.209,34.58-15.31,51.874c-6.694,1.675-13.393,3.343-20.082,5.006
	c5.885-16.38,11.772-32.764,17.659-49.139c-18.292,9.927-33.912,10.762-32.981-17.646C18.864,108.553,9.464,110.109,0,111.162
	L0,111.162z M44.532,86.349c10.93-4.438,22.041-11.146,32.189-25.563c7.568-10.759,2.246-14.643-8.473-6.268
	C57.277,63.077,49.64,74.489,44.532,86.349L44.532,86.349z M257.78,68.221c8.099-13.083,17.549-25.677,20.698-40.933
	c1.873-9.063-1.203-10.012-6.279-1.75C264.225,38.543,261.152,53.486,257.78,68.221L257.78,68.221z M107.291,54.731
	c-5.386,3.35-7.885,9.147-5.555,12.893c2.331,3.747,8.631,4.073,14.026,0.719c5.385-3.349,7.881-9.146,5.551-12.89
	C118.98,51.695,112.688,51.375,107.291,54.731L107.291,54.731z M244.984,161.691c0.349-0.899,0.6-2.033,0.747-3.402
	c0.14-1.378,0.218-2.994,0.218-4.862c0-1.858-0.078-3.477-0.218-4.844c-0.147-1.375-0.406-2.513-0.768-3.429
	c-0.361-0.92-0.858-1.618-1.499-2.101c-0.637-0.474-1.458-0.719-2.48-0.719c-1.019,0-1.844,0.245-2.485,0.719
	c-0.656,0.482-1.166,1.199-1.54,2.138c-0.361,0.928-0.615,2.09-0.755,3.503c-0.128,1.407-0.193,2.998-0.193,4.764
	c0,1.897,0.054,3.482,0.173,4.759c0.114,1.265,0.365,2.409,0.747,3.419c0.357,0.938,0.862,1.655,1.512,2.156
	c0.648,0.507,1.49,0.758,2.542,0.758c1.002,0,1.827-0.242,2.48-0.717C244.113,163.354,244.618,162.637,244.984,161.691
	L244.984,161.691z M249.649,153.426c0-4.711-0.702-8.236-2.099-10.583c-1.396-2.343-3.585-3.513-6.566-3.513
	c-2.953,0-5.134,1.133-6.555,3.396c-1.408,2.271-2.115,5.846-2.115,10.731c0,4.762,0.694,8.295,2.095,10.612
	c1.393,2.324,3.585,3.482,6.575,3.482c2.944,0,5.125-1.138,6.537-3.413C248.935,161.859,249.649,158.294,249.649,153.426
	L249.649,153.426z M228.856,158.358c0-1.641-0.238-2.976-0.719-3.986c-0.484-1.024-1.17-1.873-2.065-2.559
	c-0.887-0.657-1.811-1.108-2.771-1.339c-0.957-0.226-2.128-0.349-3.512-0.349c-0.354,0-0.743,0.008-1.166,0.039
	c-0.423,0.022-0.858,0.062-1.294,0.103v-7.201h11.372v-3.187h-14.879v13.955c0.596-0.129,1.384-0.271,2.382-0.425
	c0.993-0.154,1.983-0.226,2.969-0.226c0.937,0,1.778,0.097,2.542,0.277c0.752,0.193,1.4,0.518,1.918,0.979
	c0.497,0.4,0.875,0.914,1.138,1.53c0.263,0.62,0.391,1.404,0.391,2.368c0,0.975-0.119,1.809-0.357,2.534
	c-0.23,0.712-0.575,1.335-1.031,1.877c-0.497,0.577-1.088,1-1.778,1.263c-0.698,0.259-1.4,0.39-2.135,0.39
	c-0.739,0-1.405-0.07-2.005-0.209c-0.595-0.14-1.248-0.335-1.963-0.589c-0.628-0.234-1.211-0.479-1.729-0.739
	c-0.521-0.256-0.924-0.489-1.203-0.696h-0.255v3.835c0.924,0.46,2.012,0.833,3.269,1.117c1.257,0.288,2.53,0.431,3.84,0.431
	c1.4,0,2.674-0.23,3.812-0.71c1.129-0.468,2.078-1.125,2.846-1.947c0.756-0.817,1.339-1.774,1.758-2.895
	C228.644,160.884,228.856,159.66,228.856,158.358L228.856,158.358z M191.319,148.693c0,1.602,0.246,2.969,0.745,4.105
	c0.495,1.135,1.228,2.072,2.197,2.813c0.838,0.628,1.669,1.053,2.497,1.275c0.829,0.215,1.741,0.326,2.751,0.326
	c1.027,0,1.988-0.146,2.867-0.454c0.874-0.3,1.807-0.785,2.771-1.444c-0.181,2.914-0.948,5.154-2.316,6.721
	c-1.347,1.567-3.22,2.345-5.598,2.345c-0.669,0-1.33-0.082-1.969-0.234c-0.648-0.152-1.121-0.321-1.419-0.487h-0.181v3.468
	c0.466,0.152,0.981,0.254,1.523,0.304c0.549,0.062,1.063,0.078,1.549,0.078c2.151,0,3.954-0.37,5.425-1.109
	c1.458-0.739,2.71-1.811,3.758-3.22c0.981-1.322,1.721-2.986,2.222-4.996c0.501-2.015,0.764-4.14,0.764-6.382
	c0-2.466-0.267-4.503-0.78-6.121c-0.518-1.61-1.24-2.912-2.177-3.907c-0.739-0.791-1.614-1.4-2.628-1.813
	c-1.011-0.419-2.144-0.632-3.393-0.632c-1.117,0-2.218,0.226-3.306,0.673c-1.093,0.456-2.013,1.076-2.764,1.881
	c-0.785,0.829-1.404,1.827-1.86,2.989C191.545,146.016,191.319,147.289,191.319,148.693L191.319,148.693z M205.239,151.028
	c0-1.854-0.165-3.347-0.501-4.509c-0.346-1.16-0.813-2.051-1.413-2.692c-0.521-0.583-1.063-0.979-1.614-1.195
	c-0.546-0.213-1.146-0.329-1.799-0.329c-1.494,0-2.682,0.534-3.568,1.604c-0.892,1.072-1.331,2.618-1.331,4.639
	c0,1.149,0.142,2.086,0.436,2.821c0.29,0.743,0.764,1.382,1.421,1.922c0.464,0.365,0.986,0.624,1.564,0.745
	c0.579,0.136,1.208,0.191,1.873,0.191c0.776,0,1.618-0.129,2.514-0.404c0.903-0.275,1.68-0.637,2.349-1.082
	c0.013-0.185,0.029-0.419,0.05-0.721C205.234,151.715,205.239,151.391,205.239,151.028L205.239,151.028z M186.212,166.989v-2.772
	v-5.704v-18.727h-2.816l-6.095,3.345l0.501,2.914l4.911-2.571v15.039v5.704v2.772H186.212L186.212,166.989z M157.72,154.549
	c-0.022-0.916-0.125-1.708-0.328-2.382c-0.191-0.666-0.475-1.236-0.832-1.692c-0.406-0.513-0.912-0.903-1.54-1.168
	c-0.628-0.265-1.4-0.396-2.32-0.396c-0.914,0-1.684,0.136-2.324,0.409c-0.633,0.271-1.216,0.671-1.737,1.193
	c-0.509,0.534-0.899,1.121-1.162,1.774c-0.271,0.651-0.436,1.402-0.514,2.263H157.72L157.72,154.549z M153.709,167.457
	c0.83,0,1.51-0.049,2.058-0.135c0.538-0.107,1.138-0.247,1.806-0.427c0.474-0.131,1.004-0.316,1.604-0.554
	c0.596-0.234,1.094-0.436,1.492-0.591v-3.737h-0.201c-0.277,0.234-0.634,0.48-1.053,0.739c-0.419,0.267-0.947,0.53-1.569,0.813
	c-0.587,0.269-1.238,0.489-1.957,0.653c-0.725,0.173-1.451,0.259-2.201,0.259c-2.101,0-3.751-0.624-4.938-1.875
	c-1.188-1.25-1.786-3.062-1.786-5.431h14.091v-1.854c0-1.622-0.195-2.996-0.586-4.121c-0.384-1.123-0.944-2.078-1.669-2.85
	c-0.729-0.78-1.577-1.351-2.551-1.704c-0.973-0.37-2.086-0.554-3.349-0.554c-2.807,0-5.078,0.983-6.809,2.94
	c-1.735,1.958-2.606,4.604-2.606,7.914c0,3.365,0.896,5.953,2.687,7.778C147.96,166.545,150.476,167.457,153.709,167.457
	L153.709,167.457z M135.761,167.444c0.725,0,1.322-0.045,1.784-0.14c0.465-0.09,0.984-0.226,1.561-0.39
	c0.419-0.115,0.875-0.279,1.393-0.505c0.509-0.226,0.928-0.415,1.271-0.571v-3.84h-0.199c-0.78,0.723-1.676,1.318-2.682,1.784
	c-1.007,0.454-2.07,0.688-3.188,0.688c-1.842,0-3.277-0.666-4.32-2.015c-1.035-1.336-1.559-3.209-1.559-5.612
	c0-2.452,0.536-4.349,1.616-5.684c1.07-1.343,2.493-2.021,4.263-2.021c0.6,0,1.216,0.094,1.86,0.279
	c0.647,0.179,1.205,0.392,1.68,0.632c0.54,0.281,1.002,0.55,1.393,0.826c0.378,0.263,0.696,0.497,0.937,0.704h0.199v-3.844
	c-0.813-0.409-1.744-0.774-2.778-1.088c-1.035-0.322-2.115-0.474-3.23-0.474c-1.365,0-2.655,0.246-3.848,0.725
	c-1.199,0.479-2.195,1.16-2.998,2.039c-0.803,0.885-1.439,1.979-1.918,3.283c-0.482,1.3-0.719,2.836-0.719,4.622
	c0,1.795,0.228,3.359,0.684,4.684c0.469,1.333,1.119,2.429,1.953,3.312c0.84,0.871,1.842,1.52,3,1.959
	C133.083,167.227,134.367,167.444,135.761,167.444L135.761,167.444z M122.868,166.989v-13.203c0-2.495-0.563-4.403-1.696-5.721
	c-1.125-1.32-2.694-1.979-4.698-1.979c-1.097,0-2.15,0.242-3.147,0.729c-0.992,0.487-2.002,1.191-3.021,2.097v-2.254h-3.424v20.333
	h3.424v-15.185c0.862-0.735,1.741-1.322,2.645-1.772c0.911-0.46,1.784-0.69,2.643-0.69c0.848,0,1.534,0.125,2.035,0.376
	c0.497,0.244,0.883,0.622,1.166,1.14c0.257,0.48,0.423,1.129,0.518,1.936c0.092,0.803,0.136,1.676,0.136,2.616v11.579H122.868
	L122.868,166.989z M102.096,143.241v-3.546h-3.897v3.546H102.096L102.096,143.241z M101.859,166.989v-20.333h-3.423v20.333H101.859
	L101.859,166.989z M87.213,167.481c1.389,0,2.54-0.16,3.454-0.472c0.92-0.316,1.745-0.78,2.472-1.388
	c0.668-0.559,1.177-1.232,1.518-2.014c0.35-0.785,0.52-1.608,0.52-2.487c0-1.499-0.382-2.69-1.136-3.565
	c-0.755-0.871-1.887-1.495-3.397-1.879c-0.687-0.17-1.35-0.314-1.976-0.441c-0.62-0.131-1.195-0.263-1.706-0.394
	c-1.017-0.263-1.76-0.616-2.216-1.031c-0.458-0.417-0.694-1.051-0.694-1.897c0-0.963,0.395-1.675,1.175-2.152
	c0.771-0.477,1.725-0.704,2.846-0.704c1.097,0,2.185,0.199,3.251,0.597c1.077,0.398,2.051,0.945,2.932,1.637h0.183v-3.665
	c-0.78-0.419-1.737-0.772-2.879-1.052c-1.146-0.279-2.279-0.421-3.408-0.421c-2.294,0-4.132,0.581-5.52,1.727
	c-1.384,1.162-2.074,2.649-2.074,4.48c0,1.339,0.352,2.474,1.056,3.421c0.7,0.937,1.836,1.634,3.388,2.086
	c0.596,0.162,1.247,0.322,1.951,0.47c0.704,0.146,1.273,0.265,1.708,0.372c1.134,0.287,1.918,0.628,2.359,1.045
	c0.438,0.407,0.664,1.022,0.664,1.834c0,0.636-0.095,1.111-0.288,1.429c-0.187,0.318-0.49,0.612-0.914,0.887
	c-0.302,0.197-0.762,0.357-1.386,0.485c-0.622,0.131-1.197,0.197-1.745,0.197c-0.758,0-1.479-0.111-2.181-0.316
	c-0.694-0.206-1.339-0.438-1.92-0.707c-0.649-0.31-1.181-0.593-1.571-0.879c-0.398-0.279-0.739-0.536-1.034-0.757h-0.186v3.842
	c0.78,0.411,1.762,0.796,2.947,1.162C84.589,167.296,85.855,167.481,87.213,167.481L87.213,167.481z M312.499,8.773
	c0-0.426-0.069-0.809-0.222-1.137c-0.152-0.324-0.382-0.597-0.698-0.81c-0.275-0.182-0.587-0.313-0.965-0.383
	c-0.366-0.08-0.813-0.115-1.355-0.115h-1.931v5.514h1.709c0.559,0,1.056-0.049,1.503-0.149c0.452-0.094,0.825-0.307,1.142-0.609
	c0.279-0.274,0.484-0.599,0.624-0.983C312.438,9.727,312.499,9.282,312.499,8.773L312.499,8.773z M316.7,19.263h-2.521l-4.624-5.805
	h-2.227v5.805h-1.938V4.659h3.766c0.838,0,1.536,0.05,2.099,0.135c0.57,0.093,1.112,0.307,1.613,0.64
	c0.514,0.328,0.916,0.75,1.212,1.266c0.304,0.52,0.452,1.155,0.452,1.924c0,1.072-0.271,1.971-0.817,2.684
	c-0.538,0.724-1.277,1.252-2.214,1.604L316.7,19.263L316.7,19.263z M310.553,1.834c5.729,0,10.373,4.648,10.373,10.378
	c0,5.723-4.645,10.373-10.373,10.373c-5.726,0-10.374-4.65-10.374-10.373C300.179,6.482,304.827,1.834,310.553,1.834L310.553,1.834z
	 M310.553,0c6.738,0,12.209,5.471,12.209,12.212c0,6.743-5.471,12.21-12.209,12.21c-6.744,0-12.21-5.467-12.21-12.21
	C298.343,5.471,303.809,0,310.553,0z"/>
</svg>
